<!-- Generated by IcoMoon.io -->
<svg version="1.1" xmlns="http://www.w3.org/2000/svg" width="48" height="48" viewBox="0 0 48 48">
<title>amazon</title>
<path d="M43.388 41.494c-5.259 3.881-12.872 5.944-19.434 5.944-9.197 0-17.475-3.394-23.737-9.056-0.488-0.441-0.056-1.050 0.534-0.703 6.759 3.938 15.122 6.3 23.756 6.3 5.822 0 12.225-1.209 18.122-3.713 0.881-0.375 1.631 0.591 0.759 1.228z"></path>
<path d="M45.572 39c-0.675-0.862-4.444-0.412-6.141-0.206-0.516 0.056-0.591-0.384-0.131-0.713 3.009-2.109 7.941-1.5 8.513-0.797 0.581 0.713-0.15 5.653-2.972 8.016-0.431 0.366-0.844 0.169-0.656-0.309 0.647-1.584 2.063-5.128 1.388-5.991z"></path>
<path d="M33.159 35.513l0.009 0.009c1.162-1.022 3.253-2.85 4.434-3.834 0.469-0.375 0.384-1.003 0.019-1.528-1.059-1.463-2.184-2.653-2.184-5.353v-9c0-3.816 0.263-7.313-2.541-9.938-2.212-2.119-5.887-2.869-8.7-2.869-5.494 0-11.625 2.053-12.909 8.841-0.141 0.722 0.394 1.106 0.862 1.209l5.597 0.609c0.525-0.028 0.9-0.544 1.003-1.069 0.478-2.334 2.438-3.469 4.641-3.469 1.191 0 2.541 0.431 3.244 1.5 0.806 1.191 0.703 2.813 0.703 4.191v0.75c-3.347 0.375-7.725 0.619-10.856 1.997-3.619 1.566-6.159 4.753-6.159 9.441 0 6 3.778 9 8.644 9 4.106 0 6.347-0.966 9.516-4.209 1.050 1.519 1.388 2.259 3.309 3.853 0.441 0.234 0.984 0.216 1.369-0.131zM27.338 21.431c0 2.25 0.056 4.125-1.078 6.122-0.919 1.631-2.372 2.625-3.994 2.625-2.213 0-3.506-1.688-3.506-4.181 0-4.922 4.416-5.813 8.588-5.813v1.247z"></path>
</svg>
