<!-- Generated by IcoMoon.io -->
<svg version="1.1" xmlns="http://www.w3.org/2000/svg" width="48" height="48" viewBox="0 0 48 48">
<title>behance</title>
<path d="M13.922 9.619c1.416 0 2.691 0.122 3.853 0.375 1.163 0.244 2.147 0.656 2.981 1.219 0.825 0.563 1.462 1.313 1.931 2.25 0.45 0.928 0.675 2.091 0.675 3.469 0 1.491-0.337 2.728-1.012 3.722-0.684 0.994-1.678 1.8-3.009 2.438 1.819 0.525 3.159 1.444 4.059 2.747 0.9 1.313 1.331 2.887 1.331 4.744 0 1.5-0.291 2.784-0.862 3.872-0.581 1.097-1.369 1.987-2.334 2.672-0.975 0.694-2.1 1.2-3.356 1.528-1.247 0.328-2.531 0.497-3.862 0.497h-14.316v-29.531h13.922zM13.078 21.544c1.153 0 2.109-0.272 2.859-0.825 0.75-0.544 1.106-1.444 1.106-2.681 0-0.684-0.122-1.256-0.366-1.697-0.253-0.441-0.581-0.788-1.003-1.031-0.412-0.253-0.881-0.422-1.434-0.516-0.534-0.103-1.097-0.15-1.669-0.15h-6.075v6.9h6.581zM13.434 34.116c0.638 0 1.247-0.056 1.819-0.188 0.581-0.131 1.097-0.328 1.528-0.628 0.431-0.291 0.797-0.675 1.059-1.181 0.263-0.497 0.384-1.134 0.384-1.913 0-1.519-0.431-2.606-1.284-3.262-0.853-0.647-1.987-0.966-3.394-0.966h-7.050v8.128h6.938z"></path>
<path d="M33.994 34.013c0.881 0.862 2.147 1.294 3.797 1.294 1.181 0 2.212-0.3 3.066-0.9s1.369-1.237 1.566-1.894h5.175c-0.834 2.578-2.091 4.406-3.816 5.513-1.697 1.106-3.778 1.669-6.188 1.669-1.688 0-3.197-0.272-4.556-0.806-1.359-0.544-2.494-1.303-3.45-2.297-0.928-0.994-1.659-2.175-2.175-3.563-0.506-1.378-0.769-2.906-0.769-4.556 0-1.603 0.263-3.094 0.788-4.472 0.534-1.388 1.266-2.578 2.241-3.581s2.119-1.8 3.469-2.381c1.341-0.581 2.822-0.872 4.463-0.872 1.809 0 3.394 0.347 4.753 1.059 1.35 0.703 2.466 1.65 3.337 2.831s1.491 2.541 1.875 4.059c0.384 1.519 0.516 3.103 0.413 4.762h-15.441c0 1.678 0.563 3.281 1.453 4.134zM40.734 22.781c-0.694-0.769-1.884-1.191-3.319-1.191-0.938 0-1.716 0.159-2.334 0.478-0.609 0.319-1.106 0.712-1.491 1.181-0.375 0.469-0.637 0.975-0.787 1.509-0.15 0.516-0.244 0.994-0.272 1.406h9.563c-0.141-1.5-0.656-2.606-1.359-3.384z"></path>
<path d="M31.331 12h11.972v2.916h-11.972v-2.916z"></path>
</svg>
