<!-- Generated by IcoMoon.io -->
<svg version="1.1" xmlns="http://www.w3.org/2000/svg" width="48" height="48" viewBox="0 0 48 48">
<title>dribbble</title>
<path d="M24 48c-13.237 0-24-10.763-24-24s10.762-24 24-24c13.237 0 24 10.762 24 24s-10.763 24-24 24v0zM44.241 27.281c-0.703-0.225-6.347-1.903-12.769-0.872 2.681 7.369 3.769 13.369 3.984 14.616 4.594-3.113 7.875-8.034 8.784-13.744v0zM32.006 42.9c-0.309-1.8-1.491-8.063-4.369-15.544-0.047 0.019-0.094 0.028-0.131 0.047-11.569 4.031-15.722 12.047-16.087 12.797 3.478 2.709 7.847 4.331 12.581 4.331 2.841 0 5.55-0.581 8.006-1.631v0zM8.766 37.734c0.469-0.797 6.094-10.106 16.659-13.528 0.263-0.084 0.534-0.169 0.806-0.244-0.516-1.163-1.078-2.334-1.659-3.478-10.228 3.066-20.166 2.934-21.066 2.925-0.009 0.206-0.009 0.413-0.009 0.628 0 5.259 1.997 10.069 5.269 13.697v0zM3.938 19.828c0.919 0.009 9.366 0.047 18.956-2.494-3.394-6.038-7.059-11.119-7.603-11.859-5.737 2.709-10.031 7.997-11.353 14.353v0zM19.2 4.097c0.563 0.759 4.294 5.831 7.65 12 7.294-2.728 10.378-6.881 10.744-7.406-3.619-3.216-8.381-5.166-13.594-5.166-1.65 0.009-3.263 0.206-4.8 0.572v0zM39.872 11.072c-0.431 0.581-3.872 4.988-11.447 8.081 0.478 0.975 0.938 1.969 1.359 2.972 0.15 0.356 0.3 0.703 0.441 1.059 6.825-0.853 13.603 0.516 14.278 0.656-0.047-4.838-1.781-9.281-4.631-12.769v0z"></path>
</svg>
