<!-- Generated by IcoMoon.io -->
<svg version="1.1" xmlns="http://www.w3.org/2000/svg" width="48" height="48" viewBox="0 0 48 48">
<title>earth</title>
<path d="M24 0c-13.255 0-24 10.745-24 24s10.745 24 24 24 24-10.745 24-24-10.745-24-24-24zM24 45c-2.951 0-5.76-0.61-8.308-1.709l10.929-12.295c0.244-0.275 0.379-0.629 0.379-0.997v-4.5c0-0.828-0.672-1.5-1.5-1.5-5.296 0-10.885-5.506-10.939-5.561-0.281-0.281-0.663-0.439-1.061-0.439h-6c-0.828 0-1.5 0.672-1.5 1.5v9c0 0.568 0.321 1.088 0.829 1.342l5.171 2.585v8.807c-5.44-3.795-9-10.098-9-17.234 0-3.221 0.726-6.272 2.022-9h5.478c0.398 0 0.779-0.158 1.061-0.439l6-6c0.281-0.281 0.439-0.663 0.439-1.061v-3.629c1.901-0.566 3.915-0.871 6-0.871 3.3 0 6.422 0.762 9.201 2.119-0.194 0.164-0.383 0.336-0.565 0.517-1.7 1.7-2.636 3.96-2.636 6.364s0.936 4.664 2.636 6.364c1.708 1.708 3.995 2.637 6.358 2.637 0.148 0 0.297-0.004 0.446-0.011 0.648 2.428 1.816 8.75-0.394 17.453-0.021 0.082-0.033 0.164-0.039 0.245-3.812 3.894-9.127 6.312-15.007 6.312z"></path>
</svg>
