<!-- Generated by IcoMoon.io -->
<svg version="1.1" xmlns="http://www.w3.org/2000/svg" width="48" height="48" viewBox="0 0 48 48">
<title>google-plus</title>
<path d="M15.272 21.441v5.241h8.663c-0.347 2.25-2.616 6.591-8.663 6.591-5.213 0-9.469-4.322-9.469-9.647s4.256-9.647 9.469-9.647c2.972 0 4.95 1.266 6.084 2.353l4.144-3.994c-2.663-2.484-6.112-3.994-10.228-3.994-8.447 0.009-15.272 6.834-15.272 15.281s6.825 15.272 15.272 15.272c8.812 0 14.663-6.197 14.663-14.925 0-1.003-0.113-1.772-0.244-2.531h-14.419z"></path>
<path d="M48 21h-4.5v-4.5h-4.5v4.5h-4.5v4.5h4.5v4.5h4.5v-4.5h4.5z"></path>
</svg>
