<!-- Generated by IcoMoon.io -->
<svg version="1.1" xmlns="http://www.w3.org/2000/svg" width="48" height="48" viewBox="0 0 48 48">
<title>instagram</title>
<path d="M24 4.322c6.412 0 7.172 0.028 9.694 0.141 2.344 0.103 3.609 0.497 4.453 0.825 1.116 0.431 1.922 0.956 2.756 1.791 0.844 0.844 1.359 1.641 1.8 2.756 0.328 0.844 0.722 2.119 0.825 4.453 0.112 2.531 0.141 3.291 0.141 9.694s-0.028 7.172-0.141 9.694c-0.103 2.344-0.497 3.609-0.825 4.453-0.431 1.116-0.956 1.922-1.791 2.756-0.844 0.844-1.641 1.359-2.756 1.8-0.844 0.328-2.119 0.722-4.453 0.825-2.531 0.112-3.291 0.141-9.694 0.141s-7.172-0.028-9.694-0.141c-2.344-0.103-3.609-0.497-4.453-0.825-1.116-0.431-1.922-0.956-2.756-1.791-0.844-0.844-1.359-1.641-1.8-2.756-0.328-0.844-0.722-2.119-0.825-4.453-0.113-2.531-0.141-3.291-0.141-9.694s0.028-7.172 0.141-9.694c0.103-2.344 0.497-3.609 0.825-4.453 0.431-1.116 0.956-1.922 1.791-2.756 0.844-0.844 1.641-1.359 2.756-1.8 0.844-0.328 2.119-0.722 4.453-0.825 2.522-0.112 3.281-0.141 9.694-0.141zM24 0c-6.516 0-7.331 0.028-9.891 0.141-2.55 0.113-4.303 0.525-5.822 1.116-1.584 0.619-2.925 1.434-4.256 2.775-1.341 1.331-2.156 2.672-2.775 4.247-0.591 1.528-1.003 3.272-1.116 5.822-0.112 2.569-0.141 3.384-0.141 9.9s0.028 7.331 0.141 9.891c0.112 2.55 0.525 4.303 1.116 5.822 0.619 1.584 1.434 2.925 2.775 4.256 1.331 1.331 2.672 2.156 4.247 2.766 1.528 0.591 3.272 1.003 5.822 1.116 2.559 0.113 3.375 0.141 9.891 0.141s7.331-0.028 9.891-0.141c2.55-0.112 4.303-0.525 5.822-1.116 1.575-0.609 2.916-1.434 4.247-2.766s2.156-2.672 2.766-4.247c0.591-1.528 1.003-3.272 1.116-5.822 0.112-2.559 0.141-3.375 0.141-9.891s-0.028-7.331-0.141-9.891c-0.112-2.55-0.525-4.303-1.116-5.822-0.591-1.594-1.406-2.934-2.747-4.266-1.331-1.331-2.672-2.156-4.247-2.766-1.528-0.591-3.272-1.003-5.822-1.116-2.569-0.122-3.384-0.15-9.9-0.15v0z"></path>
<path d="M24 11.672c-6.806 0-12.328 5.522-12.328 12.328s5.522 12.328 12.328 12.328 12.328-5.522 12.328-12.328c0-6.806-5.522-12.328-12.328-12.328zM24 31.997c-4.416 0-7.997-3.581-7.997-7.997s3.581-7.997 7.997-7.997c4.416 0 7.997 3.581 7.997 7.997s-3.581 7.997-7.997 7.997z"></path>
<path d="M39.694 11.184c0 1.59-1.289 2.878-2.878 2.878s-2.878-1.289-2.878-2.878c0-1.59 1.289-2.878 2.878-2.878s2.878 1.289 2.878 2.878z"></path>
</svg>
