<!-- Generated by IcoMoon.io -->
<svg version="1.1" xmlns="http://www.w3.org/2000/svg" width="48" height="48" viewBox="0 0 48 48">
<title>linkedin2</title>
<path d="M18 18h8.302v4.255h0.119c1.155-2.072 3.982-4.255 8.196-4.255 8.763 0 10.384 5.455 10.384 12.55v14.45h-8.654v-12.81c0-3.056-0.063-6.986-4.501-6.986-4.507 0-5.195 3.327-5.195 6.764v13.032h-8.65v-27z"></path>
<path d="M3 18h9v27h-9v-27z"></path>
<path d="M12 10.5c0 2.485-2.015 4.5-4.5 4.5s-4.5-2.015-4.5-4.5c0-2.485 2.015-4.5 4.5-4.5s4.5 2.015 4.5 4.5z"></path>
</svg>
