<!-- Generated by IcoMoon.io -->
<svg version="1.1" xmlns="http://www.w3.org/2000/svg" width="48" height="48" viewBox="0 0 48 48">
<title>pinterest</title>
<path d="M24 3.206c-11.484 0-20.794 9.309-20.794 20.794 0 8.813 5.484 16.331 13.219 19.359-0.178-1.641-0.347-4.172 0.075-5.963 0.375-1.622 2.438-10.331 2.438-10.331s-0.619-1.247-0.619-3.084c0-2.888 1.678-5.053 3.759-5.053 1.772 0 2.634 1.331 2.634 2.925 0 1.781-1.134 4.453-1.725 6.919-0.497 2.072 1.031 3.759 3.075 3.759 3.694 0 6.534-3.9 6.534-9.525 0-4.978-3.581-8.456-8.681-8.456-5.916 0-9.384 4.434-9.384 9.028 0 1.791 0.684 3.703 1.547 4.744 0.169 0.206 0.197 0.384 0.141 0.6-0.159 0.656-0.506 2.072-0.581 2.362-0.094 0.384-0.3 0.459-0.694 0.281-2.597-1.209-4.219-5.006-4.219-8.053 0-6.563 4.762-12.581 13.734-12.581 7.209 0 12.816 5.137 12.816 12.009 0 7.163-4.519 12.938-10.791 12.938-2.109 0-4.087-1.097-4.763-2.391 0 0-1.041 3.966-1.294 4.941-0.469 1.809-1.734 4.069-2.587 5.447 1.95 0.6 4.012 0.928 6.159 0.928 11.484 0 20.794-9.309 20.794-20.794 0-11.494-9.309-20.803-20.794-20.803z"></path>
</svg>
