<!-- Generated by IcoMoon.io -->
<svg version="1.1" xmlns="http://www.w3.org/2000/svg" width="48" height="48" viewBox="0 0 48 48">
<title>renren</title>
<path d="M19.931 0.497c-11.306 1.903-19.931 11.738-19.931 23.587 0 5.887 2.138 11.278 5.662 15.45 8.372-4.050 14.231-13.219 14.269-23.897v-15.141z"></path>
<path d="M28.069 0.497c11.306 1.903 19.931 11.738 19.931 23.587 0 5.887-2.138 11.278-5.662 15.45-8.372-4.050-14.231-13.219-14.269-23.897v-15.141z"></path>
<path d="M23.916 30.122c-1.491 6.169-5.944 11.438-11.484 14.944 3.413 1.866 7.322 2.934 11.484 2.934s8.072-1.069 11.484-2.934c-5.541-3.506-9.994-8.775-11.484-14.944z"></path>
</svg>
