<!-- Generated by IcoMoon.io -->
<svg version="1.1" xmlns="http://www.w3.org/2000/svg" width="48" height="48" viewBox="0 0 48 48">
<title>skype</title>
<path d="M19.95 1.753c-0.075-0.047-0.159-0.084-0.234-0.122-0.084 0.019-0.159 0.028-0.244 0.047l0.478 0.075z"></path>
<path d="M1.725 19.734c-0.019 0.084-0.028 0.169-0.037 0.244 0.047 0.075 0.075 0.15 0.122 0.225l-0.084-0.469z"></path>
<path d="M46.256 28.247c0.019-0.084 0.028-0.169 0.047-0.253-0.047-0.075-0.075-0.15-0.122-0.225l0.075 0.478z"></path>
<path d="M27.75 46.078c0.075 0.047 0.159 0.084 0.234 0.122 0.084-0.019 0.169-0.028 0.253-0.038l-0.487-0.084z"></path>
<path d="M46.303 27.994c-0.019 0.084-0.028 0.169-0.047 0.253l-0.084-0.488c0.047 0.084 0.084 0.159 0.131 0.234 0.244-1.35 0.375-2.728 0.375-4.106 0-3.056-0.6-6.028-1.781-8.822-1.144-2.7-2.775-5.128-4.856-7.209s-4.509-3.713-7.2-4.856c-2.794-1.181-5.766-1.781-8.822-1.781-1.444 0-2.887 0.131-4.294 0.403 0 0-0.009 0-0.009 0 0.075 0.037 0.159 0.075 0.234 0.122l-0.478-0.075c0.084-0.019 0.159-0.028 0.244-0.047-1.931-1.022-4.097-1.575-6.291-1.575-3.581 0-6.956 1.397-9.488 3.928s-3.928 5.906-3.928 9.488c0 2.278 0.591 4.528 1.688 6.506 0.019-0.084 0.028-0.169 0.037-0.244l0.084 0.478c-0.047-0.075-0.084-0.15-0.122-0.225-0.225 1.284-0.338 2.597-0.338 3.909 0 3.056 0.6 6.028 1.781 8.822 1.144 2.7 2.775 5.119 4.856 7.2s4.509 3.713 7.209 4.856c2.794 1.181 5.766 1.781 8.822 1.781 1.331 0 2.662-0.122 3.966-0.356-0.075-0.047-0.15-0.084-0.234-0.122l0.487 0.084c-0.084 0.019-0.169 0.028-0.253 0.038 2.006 1.134 4.284 1.744 6.6 1.744 3.581 0 6.956-1.397 9.487-3.928s3.928-5.906 3.928-9.487c-0.009-2.278-0.6-4.528-1.706-6.525zM24.103 37.772c-8.053 0-11.653-3.956-11.653-6.928 0-1.519 1.125-2.588 2.672-2.588 3.45 0 2.55 4.95 8.981 4.95 3.291 0 5.109-1.791 5.109-3.619 0-1.097-0.544-2.316-2.709-2.85l-7.163-1.791c-5.766-1.444-6.816-4.566-6.816-7.5 0-6.084 5.728-8.372 11.109-8.372 4.959 0 10.8 2.737 10.8 6.394 0 1.566-1.359 2.475-2.906 2.475-2.944 0-2.4-4.069-8.325-4.069-2.944 0-4.566 1.331-4.566 3.234s2.325 2.513 4.341 2.972l5.306 1.181c5.803 1.294 7.275 4.688 7.275 7.875 0 4.941-3.797 8.634-11.456 8.634z"></path>
</svg>
