<!-- Generated by IcoMoon.io -->
<svg version="1.1" xmlns="http://www.w3.org/2000/svg" width="48" height="48" viewBox="0 0 48 48">
<title>sphere</title>
<path d="M22.5 3c-12.426 0-22.5 10.074-22.5 22.5s10.074 22.5 22.5 22.5c12.426 0 22.5-10.074 22.5-22.5s-10.074-22.5-22.5-22.5zM35.231 33c0.402-1.896 0.656-3.909 0.739-6h5.974c-0.156 2.072-0.639 4.083-1.438 6h-5.275zM9.769 18c-0.402 1.896-0.656 3.909-0.739 6h-5.974c0.156-2.072 0.639-4.083 1.438-6h5.275zM32.158 18c0.451 1.92 0.722 3.931 0.81 6h-8.968v-6h8.158zM24 15v-8.781c0.684 0.199 1.361 0.533 2.026 1.002 1.246 0.878 2.438 2.232 3.447 3.913 0.698 1.163 1.301 2.457 1.805 3.866h-7.278zM15.527 11.134c1.009-1.682 2.201-3.035 3.447-3.913 0.665-0.469 1.342-0.803 2.026-1.002v8.782h-7.278c0.504-1.409 1.107-2.704 1.805-3.866zM21 18v6h-8.968c0.088-2.069 0.359-4.080 0.81-6h8.158zM4.495 33c-0.799-1.917-1.282-3.928-1.438-6h5.974c0.083 2.091 0.336 4.104 0.739 6h-5.275zM12.032 27h8.968v6h-8.158c-0.451-1.92-0.722-3.931-0.81-6zM21 36v8.782c-0.684-0.199-1.361-0.533-2.026-1.002-1.246-0.878-2.438-2.232-3.447-3.913-0.698-1.163-1.301-2.457-1.805-3.866h7.278zM29.474 39.866c-1.009 1.682-2.201 3.035-3.447 3.913-0.665 0.469-1.342 0.803-2.026 1.002v-8.782h7.278c-0.504 1.409-1.107 2.704-1.805 3.866zM24 33v-6h8.968c-0.088 2.069-0.359 4.080-0.81 6h-8.158zM35.969 24c-0.083-2.091-0.336-4.104-0.739-6h5.275c0.8 1.917 1.282 3.928 1.438 6h-5.974zM38.937 15h-4.495c-0.874-2.754-2.080-5.17-3.53-7.098 1.994 0.953 3.8 2.232 5.377 3.81 1.007 1.007 1.892 2.106 2.649 3.289zM8.711 11.711c1.578-1.578 3.383-2.856 5.377-3.81-1.45 1.928-2.657 4.344-3.53 7.098h-4.495c0.756-1.182 1.642-2.282 2.648-3.289zM6.063 36h4.495c0.874 2.754 2.080 5.17 3.531 7.098-1.994-0.953-3.8-2.232-5.377-3.81-1.007-1.007-1.892-2.106-2.649-3.289zM36.289 39.289c-1.578 1.578-3.383 2.856-5.377 3.81 1.45-1.928 2.657-4.344 3.53-7.098h4.495c-0.757 1.182-1.642 2.282-2.649 3.289z"></path>
</svg>
