<!-- Generated by IcoMoon.io -->
<svg version="1.1" xmlns="http://www.w3.org/2000/svg" width="48" height="48" viewBox="0 0 48 48">
<title>twitter</title>
<path d="M48 10.613c-1.763 0.787-3.666 1.313-5.653 1.547 2.034-1.219 3.591-3.15 4.331-5.447-1.903 1.125-4.012 1.95-6.253 2.391-1.8-1.912-4.359-3.103-7.191-3.103-5.438 0-9.844 4.406-9.844 9.844 0 0.769 0.084 1.519 0.253 2.241-8.184-0.413-15.441-4.331-20.297-10.294-0.844 1.453-1.331 3.15-1.331 4.95 0 3.413 1.734 6.431 4.378 8.194-1.613-0.047-3.131-0.497-4.463-1.228 0 0.038 0 0.084 0 0.122 0 4.772 3.394 8.756 7.903 9.656-0.825 0.225-1.697 0.347-2.597 0.347-0.637 0-1.247-0.066-1.856-0.178 1.256 3.909 4.894 6.759 9.197 6.844-3.375 2.644-7.612 4.219-12.234 4.219-0.797 0-1.575-0.047-2.353-0.141 4.369 2.803 9.544 4.425 15.103 4.425 18.113 0 28.022-15.009 28.022-28.022 0-0.431-0.009-0.853-0.028-1.275 1.922-1.378 3.591-3.113 4.912-5.091z"></path>
</svg>
