<!-- Generated by IcoMoon.io -->
<svg version="1.1" xmlns="http://www.w3.org/2000/svg" width="48" height="48" viewBox="0 0 48 48">
<title>vimeo</title>
<path d="M47.981 12.844c-0.216 4.669-3.478 11.072-9.788 19.191-6.525 8.475-12.047 12.722-16.566 12.722-2.794 0-5.166-2.578-7.097-7.744-1.294-4.734-2.578-9.469-3.872-14.203-1.434-5.166-2.972-7.744-4.622-7.744-0.356 0-1.612 0.759-3.769 2.259l-2.259-2.906c2.372-2.081 4.706-4.163 7.003-6.244 3.159-2.728 5.531-4.163 7.116-4.313 3.731-0.356 6.038 2.194 6.9 7.659 0.928 5.897 1.575 9.563 1.941 10.997 1.078 4.894 2.259 7.341 3.553 7.341 1.003 0 2.512-1.584 4.528-4.762 2.006-3.169 3.084-5.587 3.234-7.247 0.291-2.738-0.787-4.116-3.234-4.116-1.153 0-2.334 0.262-3.553 0.787 2.362-7.725 6.862-11.475 13.519-11.259 4.922 0.131 7.247 3.328 6.966 9.581z"></path>
</svg>
