<!-- Generated by IcoMoon.io -->
<svg version="1.1" xmlns="http://www.w3.org/2000/svg" width="120" height="48" viewBox="0 0 120 48">
<title>youtube2</title>
<path d="M16.126 7.941c0.010-0.041 0.016-0.069 0.018-0.084l0.049-0.354-2.219-0.013c-2.005-0.011-2.619 0-2.674 0.051-0.026 0.024-0.719 2.655-1.953 7.419-0.589 2.273-1.084 4.088-1.101 4.034s-0.721-2.648-1.565-5.765c-0.844-3.116-1.552-5.683-1.573-5.704-0.029-0.029-2.718-0.042-4.895-0.024-0.316 0.003-0.491-0.615 2.813 9.897 0.457 1.455 1.142 3.515 1.522 4.579 0.437 1.225 0.749 2.171 0.963 2.961 0.377 1.503 0.39 2.445 0.308 3.545-0.095 1.27-0.109 10.239-0.016 10.389 0.071 0.115 4.276 0.168 4.674 0.059 0.064-0.017 0.106-0.079 0.135-0.419 0.099-0.292 0.107-1.452 0.107-6.269v-6.154l0.269-0.849c0.176-0.555 0.619-2.015 0.984-3.245s0.807-2.701 0.981-3.271c1.586-5.171 3.1-10.258 3.14-10.547l0.032-0.237z"></path>
<path d="M39.662 15.406l-0.001 0.321-0.050 0.001-0.028 8.859-0.027 8.589-0.687 0.7c-0.77 0.784-1.387 1.083-1.945 0.943-0.608-0.153-0.592 0.084-0.643-10.067l-0.047-9.344h-4.421v0.321h-0.051v10.139c0 10.863-0 10.856 0.551 11.947 0.439 0.869 1.079 1.292 2.175 1.438h0c1.443 0.192 3-0.462 4.442-1.866l0.627-0.61v1.052c0 0.909 0.026 1.059 0.191 1.105 0.27 0.075 3.617 0.080 3.979 0.006l0.3-0.062v-0.311l0.051-0.010v-23.208l-4.415 0.059z"></path>
<path d="M28.448 19.984c-0.419-1.797-1.204-3.005-2.495-3.841-2.029-1.312-4.346-1.451-6.496-0.389-1.567 0.774-2.576 2.058-3.097 3.941-0.062 0.224-0.108 0.413-0.142 0.694-0.133 0.665-0.148 1.657-0.182 6.279-0.053 7.122 0.029 7.969 0.921 9.586 0.875 1.587 2.691 2.75 4.667 2.99 0.595 0.072 1.801-0.040 2.495-0.233 1.576-0.437 3.087-1.683 3.756-3.097 0.289-0.611 0.463-1.036 0.568-1.812 0.196-1.060 0.21-2.774 0.21-7.143-0-5.572-0.018-6.181-0.203-6.977zM23.407 34.5c-0.371 0.283-1.019 0.405-1.546 0.293-0.406-0.087-0.953-0.723-1.122-1.303-0.21-0.724-0.226-10.781-0.045-12.753 0.299-0.987 1.134-1.502 2.045-1.257 0.71 0.191 1.074 0.636 1.281 1.568 0.154 0.692 0.172 1.553 0.139 6.622-0.022 3.361-0.034 5.004-0.143 5.885-0.112 0.556-0.296 0.705-0.61 0.945z"></path>
<path d="M107.831 25.038h2.136l-0.034-1.935c-0.033-1.775-0.059-1.978-0.296-2.46-0.374-0.76-0.926-1.097-1.802-1.097-1.052 0-1.719 0.509-2.034 1.553-0.134 0.445-0.275 3.501-0.174 3.764 0.056 0.147 0.362 0.174 2.204 0.174z"></path>
<path d="M93.553 20.636c-0.285-0.574-0.815-0.857-1.431-0.835-0.479 0.017-1.011 0.219-1.523 0.61l-0.382 0.29v13.903l0.382 0.29c0.864 0.659 1.813 0.798 2.467 0.361 0.259-0.173 0.427-0.412 0.559-0.79 0.171-0.493 0.186-1.125 0.164-6.974-0.023-6.096-0.037-6.455-0.235-6.854z"></path>
<path d="M120.041 14.373c-0.426-5.102-0.764-6.758-1.816-8.885-1.394-2.817-3.407-4.303-6.275-4.629-2.218-0.252-10.562-0.608-18.283-0.78-13.368-0.297-35.346 0.275-38.153 0.992-1.297 0.332-2.27 0.896-3.282 1.903-1.774 1.765-2.831 4.297-3.256 7.8-0.97 7.997-0.991 17.659-0.056 25.946 0.402 3.564 1.23 5.88 2.785 7.789 0.97 1.191 2.642 2.203 4.137 2.505 1.049 0.212 6.301 0.506 13.95 0.781 1.139 0.041 4.156 0.112 6.705 0.157 5.311 0.094 15.076 0.038 20.659-0.118 3.756-0.105 10.603-0.383 11.883-0.482 0.36-0.028 1.194-0.081 1.853-0.118 2.216-0.125 3.626-0.589 4.95-1.629 1.713-1.346 3.040-3.834 3.601-6.752 0.53-2.761 0.885-7.677 0.957-13.259 0.060-4.664-0.020-7.18-0.357-11.222zM66.81 12.525l-2.484 0.031-0.109 26.491-2.153 0.027c-1.665 0.023-2.171-0.002-2.211-0.109-0.029-0.076-0.064-6.048-0.078-13.273l-0.027-13.137-4.851-0.061v-4.139l14.336 0.058 0.061 4.081-2.484 0.031zM82.041 27.709v11.392h-3.925v-1.199c0-0.902-0.034-1.199-0.14-1.199-0.077 0-0.432 0.297-0.79 0.661-0.776 0.788-1.696 1.423-2.48 1.717-1.625 0.608-3.168 0.253-3.826-0.879-0.602-1.036-0.613-1.268-0.613-12.016v-9.869h3.921l0.031 9.294c0.029 9.132 0.033 9.3 0.252 9.672 0.29 0.493 0.732 0.626 1.434 0.433 0.413-0.114 0.695-0.314 1.366-0.981l0.845-0.842v-17.576h3.925v11.392zM97.348 37.472c-0.346 0.77-1.116 1.524-1.748 1.71-1.648 0.487-2.971 0.090-4.497-1.346-0.474-0.446-0.915-0.807-0.981-0.807-0.080 0-0.123 0.349-0.123 1.036v1.036h-3.925v-30.743h3.925v5.015c0 2.758 0.037 5.015 0.082 5.015s0.459-0.366 0.92-0.811c1.061-1.024 1.948-1.472 3.073-1.557 2.007-0.152 3.203 0.881 3.751 3.24 0.171 0.736 0.187 1.576 0.187 8.394-0 8.305-0.001 8.34-0.664 9.818zM113.953 32.914c-0.035 0.854-0.138 1.835-0.232 2.18-0.546 2.023-1.999 3.456-4.098 4.044-2.827 0.791-5.939-0.505-7.181-2.991-0.697-1.395-0.722-1.674-0.722-8.493 0-5.56 0.020-6.242 0.198-7.001 0.504-2.146 1.753-3.535 3.867-4.306 0.613-0.223 1.252-0.338 1.891-0.351 2.281-0.047 4.546 1.18 5.495 3.179 0.64 1.348 0.72 1.925 0.784 5.723l0.058 3.407-8.367 0.058-0.031 2.289c-0.044 3.23 0.174 4.223 1.046 4.81 0.733 0.494 1.86 0.457 2.473-0.082 0.575-0.505 0.737-1.047 0.794-2.63l0.051-1.39h4.040l-0.065 1.554z"></path>
</svg>
