<!-- Generated by IcoMoon.io -->
<svg version="1.1" xmlns="http://www.w3.org/2000/svg" width="48" height="48" viewBox="0 0 48 48">
<title>youtube</title>
<path d="M47.522 14.4c0 0-0.469-3.309-1.912-4.762-1.828-1.912-3.872-1.922-4.809-2.034-6.712-0.487-16.791-0.487-16.791-0.487h-0.019c0 0-10.078 0-16.791 0.487-0.938 0.112-2.981 0.122-4.809 2.034-1.444 1.453-1.903 4.762-1.903 4.762s-0.478 3.881-0.478 7.772v3.638c0 3.881 0.478 7.772 0.478 7.772s0.469 3.309 1.903 4.763c1.828 1.912 4.228 1.847 5.297 2.053 3.844 0.366 16.322 0.478 16.322 0.478s10.088-0.019 16.8-0.497c0.938-0.112 2.981-0.122 4.809-2.034 1.444-1.453 1.912-4.763 1.912-4.763s0.478-3.881 0.478-7.772v-3.637c-0.009-3.881-0.488-7.772-0.488-7.772zM19.041 30.225v-13.491l12.966 6.769-12.966 6.722z"></path>
</svg>
